# xmcd
#
# Track frame offsets:
#	182
#	12815
#	28992
#	45390
#	64380
#	74205
#	86112
#	99360
#	112632
#	128045
#	142785
#	157995
#	171305
#	185882
#	194730
#	223057
#
# Disc length: 3246 seconds
#
# Revision: 0
# Processed by: cddbd v1.5.2PL0 Copyright (c) Steve Scherf et al.
# Submitted via: audiograbber 1.83.01
#
DISCID=ea0cac10
DTITLE=RAY CHARLES - Diamond Start Collection: Ray Charles
DYEAR=1994
DGENRE=Blues
TTITLE0=Yesterday
TTITLE1=Your cheatin' heart
TTITLE2=Georgia on my mind
TTITLE3=I can't stop loving you
TTITLE4=Busted
TTITLE5=Together again
TTITLE6=Take these chains from my heart
TTITLE7=Crying time
TTITLE8=Half as much
TTITLE9=Here we go again
TTITLE10=Born to lose
TTITLE11=Eleanor Rigby
TTITLE12=You don't know me
TTITLE13=Hit the road Jack
TTITLE14=I gotta woman (live)
TTITLE15=What'd I say (live)
EXTD=CD: 88 0023 5\nBarcode: 4 014548 002354\nArcade TV-CD\n
EXTT0=Lennon/McCartney
EXTT1=Williams
EXTT2=Gorell/Carmichael
EXTT3=Gibson
EXTT4=Howard
EXTT5=Owens
EXTT6=Rose/Heath
EXTT7=Owens
EXTT8=Williams
EXTT9=Lanier/Steagall
EXTT10=Brown
EXTT11=Lennon/McCartney
EXTT12=Walker/Arnold
EXTT13=Mayfield
EXTT14=Ray Charles
EXTT15=Ray Charles
PLAYORDER=
